<svg xmlns="http://www.w3.org/2000/svg"  viewBox="0 0 16 16" width="70px" height="70px" baseProfile="basic"><rect width="14" height="14" x="1" y="1" fill="#f28211"/><path fill="#fff" d="M12.967,12.455c0,0-0.559-0.952-1.494-0.952c-0.902,0-1.593,0.952-3.408,0.952 c-3.373,0-5.285-2.511-5.782-3.291C2.245,9.101,2.317,9.034,2.377,9.074c1.437,0.905,2.824,1.345,3.786,1.345 c1.404,0,2.197-0.679,2.197-0.679C7.065,8.974,3.963,5.415,3.302,4.418C3.257,4.351,3.339,4.276,3.401,4.328 c2.69,2.27,4.221,3.122,4.221,3.122C7.053,6.973,5.36,4.736,4.654,3.742c-0.047-0.067,0.04-0.147,0.099-0.089 c1.929,1.797,5.3,4.392,5.3,4.392c0.211-0.599,0.346-1.317,0.336-1.867c-0.022-1.449-0.952-2.893-1.34-3.458 C9.007,2.656,9.086,2.583,9.148,2.631c2.511,1.807,3.271,4.067,3.271,5.372c0,0.935-0.338,1.526-0.338,1.526 S13.513,11.095,12.967,12.455z"/></svg>